PathFileType	4	(X/Y/Z)	 s11c0101.trc
DataRate	CameraRate	NumFrames	NumMarkers	Units	OrigDataRate	OrigDataStartFrame	OrigNumFrames
200	200	6	48	mm	200	1	2000
Frame#	Time	racr			lacr			c7			jug			rlel			rdr			llel			ldr			s2			lic			ric			lasi			rasi			rpsi			lpsi			rgt			lgt			rth1			rth2			rth3			rth4			rlfc			rmfc			rsh1			rsh2			rsh3			rsh4			rlmal			rcal			rtoe			rmt5			lth1			lth2			lth4			lth3			llfc			lmfc			llmal			lcal			lmt5			lsh1			lsh2			lsh3			lsh4			ltoe			SBIKE			LBIKE			RBIKE			
		X1	Y1	Z1	X2	Y2	Z2	X3	Y3	Z3	X4	Y4	Z4	X5	Y5	Z5	X6	Y6	Z6	X7	Y7	Z7	X8	Y8	Z8	X9	Y9	Z9	X10	Y10	Z10	X11	Y11	Z11	X12	Y12	Z12	X13	Y13	Z13	X14	Y14	Z14	X15	Y15	Z15	X16	Y16	Z16	X17	Y17	Z17	X18	Y18	Z18	X19	Y19	Z19	X20	Y20	Z20	X21	Y21	Z21	X22	Y22	Z22	X23	Y23	Z23	X24	Y24	Z24	X25	Y25	Z25	X26	Y26	Z26	X27	Y27	Z27	X28	Y28	Z28	X29	Y29	Z29	X30	Y30	Z30	X31	Y31	Z31	X32	Y32	Z32	X33	Y33	Z33	X34	Y34	Z34	X35	Y35	Z35	X36	Y36	Z36	X37	Y37	Z37	X38	Y38	Z38	X39	Y39	Z39	X40	Y40	Z40	X41	Y41	Z41	X42	Y42	Z42	X43	Y43	Z43	X44	Y44	Z44	X45	Y45	Z45	X46	Y46	Z46	X47	Y47	Z47	X48	Y48	Z48	
1	0.0050	482.949455	1405.655518	-84.528291	485.744783	1422.891528	-406.217589	405.862030	1518.090950	-247.951658	455.470664	1348.246959	-251.738657	600.294576	1162.059495	-26.733189	786.947150	928.547211	-62.569418	582.302426	1139.008993	-465.564700	801.459582	911.982781	-401.994013	-110.335382	1212.300876	-244.741785	116.446892	1217.956797	-445.787642	110.929690	1212.095651	-49.699244	137.500552	1139.689859	-412.754015	132.493932	1143.852921	-82.255604	-62.167457	1281.384423	-192.360165	-65.540085	1275.453268	-290.156813	47.231595	1068.096542	-26.211228	25.747806	1092.175848	-459.130105	162.370864	979.945025	-18.637648	247.850880	955.385718	-24.533997	307.025019	891.750741	-36.326327	266.755085	986.203404	-34.213461	394.784120	822.453466	-50.771316	402.628549	810.246246	-182.726800	289.379238	706.682091	-49.369798	241.592776	636.122625	-73.690012	164.687352	595.644708	-79.443397	260.615361	623.388925	-106.240077	56.815748	523.236549	-98.621006	-7.010650	541.988648	-149.287988	212.686136	358.578048	-138.315709	138.078719	374.352911	-71.031412	140.903391	988.036812	-475.226297	217.201466	949.543193	-467.836815	241.749136	975.617136	-457.082528	265.184465	873.688581	-461.329405	362.813125	771.856821	-429.077038	372.581724	766.768472	-302.785153	275.367005	349.393617	-408.368901	222.309475	302.975452	-375.156499	427.313770	260.956138	-439.217160	329.358642	649.208241	-448.477283	340.332037	564.148503	-437.135758	307.309114	482.526714	-432.456367	371.549514	562.600002	-416.058815	519.960975	289.543093	-368.447231	-205.310740	960.942141	-261.756110	1.131444	82.585197	-460.777102	-15.400503	81.020414	-62.496046	
2	0.0100	482.974656	1405.641929	-84.539419	485.741568	1422.881529	-406.237721	405.891394	1518.101274	-247.969906	455.484509	1348.175120	-251.811213	600.288867	1162.059778	-26.740609	786.933345	928.536299	-62.578409	582.297797	1138.996643	-465.679942	801.440409	911.985177	-401.980162	-110.275433	1212.281692	-244.776708	116.446896	1217.956687	-445.787680	111.037753	1212.143259	-49.745298	137.542950	1139.708419	-412.824445	132.556155	1143.877267	-82.289443	-62.142187	1281.384174	-192.354807	-65.526666	1275.439042	-290.176293	47.287087	1068.086829	-26.232652	25.773384	1092.132406	-459.126428	162.441188	979.985602	-18.657487	247.912451	955.393131	-24.528992	307.057164	891.814918	-36.312755	266.809895	986.253922	-34.231025	394.826605	822.484299	-50.750666	402.692263	810.261490	-182.682326	289.424154	706.715218	-49.351499	241.644302	636.191145	-73.662367	164.742945	595.702630	-79.456778	260.686404	623.461551	-106.221043	56.839369	523.339085	-98.610402	-6.959052	542.029386	-149.285846	212.720765	358.620935	-138.313065	138.123863	374.420198	-71.011013	140.914365	987.961623	-475.210594	217.202189	949.456693	-467.831929	241.760625	975.544591	-457.087289	265.177733	873.597697	-461.323677	362.796863	771.782958	-429.056663	372.526985	766.670669	-302.765770	275.328355	349.318046	-408.353242	222.257441	302.905756	-375.157811	427.287777	260.900246	-439.218106	329.310620	649.133604	-448.446497	340.279284	564.097251	-437.147944	307.254807	482.451558	-432.449614	371.484365	562.505578	-416.055292	519.916235	289.518354	-368.470090	-205.302232	960.945015	-261.740253	1.113217	82.608327	-460.765150	-15.390962	81.035259	-62.487011	
3	0.0150	483.007704	1405.644680	-84.514066	485.753503	1422.866552	-406.290489	405.936301	1518.094794	-248.009203	455.501674	1348.140530	-251.821616	600.292250	1162.056362	-26.749021	786.958137	928.523337	-62.562195	582.290264	1138.972409	-465.746792	801.448736	911.985458	-401.979663	-110.271603	1212.274785	-244.778738	116.448149	1217.916363	-445.793400	111.079810	1212.150906	-49.772775	137.557902	1139.689318	-412.852473	132.591896	1143.890523	-82.319448	-62.113991	1281.380118	-192.390584	-65.517322	1275.419743	-290.195487	47.339618	1068.104638	-26.235756	25.818887	1092.088742	-459.128511	162.482346	980.007881	-18.647428	247.970651	955.437405	-24.521158	307.127622	891.877269	-36.281393	266.855786	986.302149	-34.228372	394.890625	822.541075	-50.735371	402.771607	810.315565	-182.679951	289.475132	706.779802	-49.348115	241.696088	636.259525	-73.663738	164.765274	595.765138	-79.433179	260.714279	623.503218	-106.210182	56.887016	523.403981	-98.613068	-6.904959	542.130362	-149.293709	212.771264	358.689294	-138.294033	138.157921	374.480258	-71.019886	140.935081	987.890286	-475.213879	217.191119	949.373581	-467.832376	241.769600	975.458833	-457.083725	265.173552	873.485762	-461.305349	362.753397	771.701439	-429.049373	372.471312	766.575450	-302.758305	275.299878	349.226931	-408.353828	222.217403	302.823819	-375.148183	427.241848	260.828265	-439.216789	329.265962	649.058501	-448.434855	340.227398	564.022589	-437.122877	307.194432	482.395801	-432.454747	371.424040	562.441445	-416.040747	519.893954	289.431396	-368.443434	-205.302535	960.945133	-261.740451	1.111070	82.614597	-460.752011	-15.390910	81.033747	-62.489832	
4	0.0200	483.010910	1405.607304	-84.526740	485.748132	1422.854611	-406.337283	405.966964	1518.103643	-248.028599	455.488364	1348.130264	-251.892498	600.290421	1162.049148	-26.739843	786.966138	928.513025	-62.557299	582.287541	1139.005048	-465.785102	801.448341	911.993464	-401.976419	-110.241589	1212.268199	-244.796399	116.515406	1217.926566	-445.909078	110.568333	1212.255322	-49.821425	137.601709	1139.655288	-412.879334	132.625626	1143.910659	-82.323991	-61.958719	1281.538045	-192.405301	-65.481882	1275.406325	-290.245192	47.371477	1068.097321	-26.236982	25.839151	1092.032051	-459.139438	162.540920	980.038882	-18.650560	248.013102	955.490042	-24.522108	307.183173	891.921264	-36.277145	266.905810	986.352193	-34.231317	394.949434	822.611683	-50.718151	402.862992	810.350964	-182.637875	289.526035	706.829449	-49.326383	241.945030	636.028768	-73.219363	164.797547	595.871335	-79.420176	261.089645	623.848096	-106.212712	56.919598	523.468282	-98.609804	-6.853136	542.198580	-149.307758	212.809415	358.769992	-138.283996	138.216060	374.568431	-71.016675	140.958769	987.788066	-475.215280	217.201583	949.289321	-467.822248	241.746074	975.452640	-457.121321	265.177948	873.362819	-461.292704	362.722804	771.636538	-429.025631	372.445700	766.465714	-302.738685	275.249045	349.087695	-408.423965	222.185757	302.731398	-375.135023	427.208632	260.737714	-439.222157	329.194451	649.003059	-448.422029	340.182946	563.963126	-437.102354	307.148013	482.313226	-432.437333	371.394281	562.422083	-416.086508	519.862462	289.344536	-368.447637	-205.655759	961.224955	-261.610749	1.097096	82.665603	-460.720736	-15.387893	81.006555	-62.485544	
5	0.0250	483.027390	1405.361999	-84.450134	485.739955	1422.642764	-406.284168	406.042944	1518.030928	-248.113901	455.458475	1347.925368	-251.885681	600.255964	1161.941357	-26.630126	787.110595	928.505705	-62.562293	582.261175	1138.993613	-465.885034	801.611566	912.329758	-402.110280	-110.149590	1212.330949	-244.915020	116.480579	1217.803139	-445.824126	110.632615	1212.161313	-49.924334	137.535045	1139.540879	-412.709385	132.694038	1143.775810	-82.300365	-61.870511	1281.561935	-192.554877	-65.405534	1275.373124	-290.355966	47.463186	1068.062186	-26.229413	25.866818	1091.766053	-459.211222	162.648619	980.050286	-18.685109	248.166807	955.439187	-24.471238	307.482289	891.914354	-36.394713	267.014304	986.296659	-34.240102	395.082982	822.623459	-50.610134	403.047410	810.429173	-182.711191	289.643882	706.835005	-49.251922	242.025761	636.212451	-73.454205	164.910013	595.859317	-79.393044	261.140480	623.737468	-106.089567	57.222225	523.818563	-98.346000	-6.816033	542.359663	-149.327448	212.920267	358.692819	-138.220131	138.316505	374.623715	-70.856503	140.962069	987.596818	-475.247852	217.158403	948.985995	-467.596849	241.741327	975.202720	-456.917512	265.144650	873.008644	-460.788970	362.716594	771.515284	-428.979931	372.539448	766.133385	-302.672086	275.157563	348.990932	-408.516706	222.129900	302.598328	-375.083928	427.196284	260.589391	-439.198194	329.148988	648.891165	-448.380418	340.134824	563.839812	-437.098211	307.095378	482.137411	-432.250786	371.174582	562.271355	-416.404156	519.808267	289.226599	-368.470079	-205.747337	961.260339	-261.463526	1.280979	82.899925	-460.400842	-15.313129	80.992771	-62.498414	
6	0.0300	483.043205	1405.275869	-84.449412	485.742978	1422.608578	-406.403309	406.103667	1517.991210	-248.155528	455.453537	1347.843337	-251.916809	600.241388	1161.891631	-26.632609	787.146391	928.487529	-62.393642	582.270762	1138.948242	-465.947065	801.568525	912.202893	-402.069555	-110.080919	1212.323930	-244.987657	116.515872	1217.737145	-445.859654	110.652425	1212.135409	-49.975489	137.589107	1139.364235	-412.691551	132.715842	1143.766771	-82.338502	-61.847691	1281.558738	-192.630002	-65.364716	1275.339913	-290.414161	47.505813	1068.076882	-26.215763	25.888505	1092.007618	-459.134949	162.702854	980.096914	-18.682048	248.222914	955.532953	-24.467280	307.585167	891.977350	-36.377093	267.088610	986.351517	-34.242323	395.178831	822.696915	-50.583343	403.156173	810.466768	-182.698145	289.704146	706.894791	-49.244064	242.057503	636.316432	-73.481546	164.972633	595.934859	-79.390798	261.175208	623.821114	-106.059833	57.062454	523.535523	-98.532287	-6.763270	542.385591	-149.386927	212.967022	358.747555	-138.198590	138.372192	374.689480	-70.851770	140.984426	987.689305	-475.212430	217.201614	949.067215	-467.664537	241.778688	975.191530	-457.011910	265.184358	873.033895	-460.984107	362.680545	771.515757	-429.069512	372.497263	766.034190	-302.649281	275.147291	348.957133	-408.403728	222.092527	302.678946	-375.232749	427.159257	260.575345	-439.233591	329.109104	648.872605	-448.427666	340.096783	563.861809	-437.148130	307.071590	482.160158	-432.339962	371.176895	562.198177	-416.541992	519.782141	289.211244	-368.432569	-205.705861	961.270449	-261.486785	1.311103	82.588331	-460.883263	-15.309553	81.016433	-62.477959	
